<?xml version="1.0" encoding="UTF-8"?>
<svg version="1.1" xmlns="http://www.w3.org/2000/svg" width="167" height="64">
<path d="M0 0 C55.11 0 110.22 0 167 0 C167 21.12 167 42.24 167 64 C111.89 64 56.78 64 0 64 C0 42.88 0 21.76 0 0 Z " fill="#F5F4F4" transform="translate(0,0)"/>
<path d="M0 0 C1.71315226 0.00138269 1.71315226 0.00138269 3.46091366 0.00279331 C4.7664822 0.00141865 6.07205074 0.00004398 7.41718197 -0.00137234 C8.87755512 0.00216728 10.33792804 0.0058021 11.79830074 0.00952244 C13.3255224 0.0098043 14.8527442 0.0096466 16.37996578 0.00907993 C20.5388766 0.00879192 24.69775884 0.01468928 28.85666299 0.02165389 C33.19820497 0.02788677 37.53974753 0.02849118 41.8812933 0.0296793 C50.10839555 0.03279281 58.33548458 0.04100646 66.562581 0.05102879 C75.92639037 0.06218932 85.29020035 0.06770022 94.65401471 0.07272422 C113.92143743 0.08318906 133.18884703 0.10098928 152.45625973 0.12304783 C152.45625973 7.38304783 152.45625973 14.64304783 152.45625973 22.12304783 C146.45625973 18.12304783 146.45625973 18.12304783 145.45625973 17.12304783 C142.81625973 16.79304783 140.17625973 16.46304783 137.45625973 16.12304783 C137.45625973 23.71304783 137.45625973 31.30304783 137.45625973 39.12304783 C136.46625973 39.61804783 136.46625973 39.61804783 135.45625973 40.12304783 C135.45625973 39.13304783 135.45625973 38.14304783 135.45625973 37.12304783 C133.80625973 37.12304783 132.15625973 37.12304783 130.45625973 37.12304783 C130.45625973 30.19304783 130.45625973 23.26304783 130.45625973 16.12304783 C128.14625973 16.78304783 125.83625973 17.44304783 123.45625973 18.12304783 C123.12625973 18.78304783 122.79625973 19.44304783 122.45625973 20.12304783 C121.46625973 18.63804783 121.46625973 18.63804783 120.45625973 17.12304783 C117.37260102 16.87283213 117.37260102 16.87283213 114.45625973 17.12304783 C111.12378155 23.32295603 111.12378155 23.32295603 109.45625973 30.12304783 C109.12625973 30.12304783 108.79625973 30.12304783 108.45625973 30.12304783 C108.12625973 25.83304783 107.79625973 21.54304783 107.45625973 17.12304783 C106.13625973 16.79304783 104.81625973 16.46304783 103.45625973 16.12304783 C103.45625973 19.42304783 103.45625973 22.72304783 103.45625973 26.12304783 C102.46625973 26.12304783 101.47625973 26.12304783 100.45625973 26.12304783 C100.45625973 22.82304783 100.45625973 19.52304783 100.45625973 16.12304783 C99.69829098 16.29062595 98.94032223 16.45820408 98.15938473 16.63086033 C92.17679896 17.42601413 86.18236737 17.08580485 80.15938473 16.90820408 C79.20032223 16.89402439 78.24125973 16.8798447 77.25313473 16.86523533 C76.38011715 16.84316013 75.50709957 16.82108494 74.60762691 16.7983408 C73.89767574 16.90549412 73.18772457 17.01264744 72.45625973 17.12304783 C70.49349941 20.06718831 70.20149594 20.92509716 69.95625973 24.24804783 C69.79125973 25.52679783 69.62625973 26.80554783 69.45625973 28.12304783 C68.79625973 28.45304783 68.13625973 28.78304783 67.45625973 29.12304783 C67.45625973 24.83304783 67.45625973 20.54304783 67.45625973 16.12304783 C65.80625973 16.12304783 64.15625973 16.12304783 62.45625973 16.12304783 C62.45625973 23.05304783 62.45625973 29.98304783 62.45625973 37.12304783 C61.46625973 37.12304783 60.47625973 37.12304783 59.45625973 37.12304783 C59.45625973 30.19304783 59.45625973 23.26304783 59.45625973 16.12304783 C58.13625973 16.45304783 56.81625973 16.78304783 55.45625973 17.12304783 C55.12625973 19.43304783 54.79625973 21.74304783 54.45625973 24.12304783 C52.45625973 22.12304783 52.45625973 22.12304783 51.45625973 17.12304783 C47.82625973 16.79304783 44.19625973 16.46304783 40.45625973 16.12304783 C40.45625973 17.77304783 40.45625973 19.42304783 40.45625973 21.12304783 C40.12625973 21.12304783 39.79625973 21.12304783 39.45625973 21.12304783 C39.45625973 19.47304783 39.45625973 17.82304783 39.45625973 16.12304783 C35.16625973 16.12304783 30.87625973 16.12304783 26.45625973 16.12304783 C26.45625973 16.78304783 26.45625973 17.44304783 26.45625973 18.12304783 C25.79625973 18.12304783 25.13625973 18.12304783 24.45625973 18.12304783 C24.45625973 18.78304783 24.45625973 19.44304783 24.45625973 20.12304783 C23.79625973 20.12304783 23.13625973 20.12304783 22.45625973 20.12304783 C22.12625973 16.49304783 21.79625973 12.86304783 21.45625973 9.12304783 C17.5567979 9.12304783 14.64360723 13.56274755 11.96407223 16.15429783 C9.45625973 18.12304783 9.45625973 18.12304783 5.45625973 18.12304783 C5.45625973 16.47304783 5.45625973 14.82304783 5.45625973 13.12304783 C4.37344723 13.03023533 4.37344723 13.03023533 3.26875973 12.93554783 C-0.54275517 11.83444353 -2.16512845 10.27121054 -4.54374027 7.12304783 C-4.27773559 0.20692603 -4.27773559 0.20692603 0 0 Z " fill="#FCFCFC" transform="translate(14.543740272521973,-0.1230478286743164)"/>
<path d="M0 0 C0.66 0 1.32 0 2 0 C2 2.31 2 4.62 2 7 C2.66 7 3.32 7 4 7 C4 5.02 4 3.04 4 1 C4.66 0.67 5.32 0.34 6 0 C6.33 0.66 6.66 1.32 7 2 C7.33 1.34 7.66 0.68 8 0 C10.64 0 13.28 0 16 0 C16 3.3 16 6.6 16 10 C16.99 10 17.98 10 19 10 C18.95875 8.906875 18.9175 7.81375 18.875 6.6875 C19 3 19 3 21 0 C23.475 0.495 23.475 0.495 26 1 C26.33 2.32 26.66 3.64 27 5 C27.33 3.35 27.66 1.7 28 0 C32.875 0.875 32.875 0.875 34 2 C34.33 1.34 34.66 0.68 35 0 C35.99 0 36.98 0 38 0 C38.495 1.98 38.495 1.98 39 4 C39.33 2.68 39.66 1.36 40 0 C40.66 0 41.32 0 42 0 C43.10228696 4.40914783 43.07654536 8.48382401 43 13 C42.21625 12.95875 41.4325 12.9175 40.625 12.875 C37.83883881 12.71271266 37.83883881 12.71271266 36 15 C33.20315203 15.17525055 30.5067192 15.23143189 27.7109375 15.1953125 C26.48330185 15.19106766 26.48330185 15.19106766 25.23086548 15.18673706 C22.61209607 15.17552532 19.99366636 15.15041929 17.375 15.125 C15.60156743 15.11497147 13.82812951 15.1058454 12.0546875 15.09765625 C7.70299374 15.07558278 3.3515545 15.04104644 -1 15 C-0.34 14.01 0.32 13.02 1 12 C1.02415584 9.0175423 1.02415584 9.0175423 0.625 5.8125 C0.51414063 4.72582031 0.40328125 3.63914063 0.2890625 2.51953125 C0.19367187 1.68808594 0.09828125 0.85664062 0 0 Z " fill="#E7E7E7" transform="translate(59,49)"/>
<path d="M0 0 C0.67905287 4.82196126 0.96417414 9.20504795 0 14 C-2.4140625 16.01953125 -2.4140625 16.01953125 -5.4375 17.75 C-8.78152765 19.92397204 -8.78152765 19.92397204 -11 23 C-11.99207151 28.55636582 -11.84673711 34.15116838 -11.58764648 39.77246094 C-11.55356689 40.88395508 -11.5194873 41.99544922 -11.484375 43.140625 C-11.41959961 44.14641602 -11.35482422 45.15220703 -11.28808594 46.18847656 C-12.25937526 50.02433661 -14.24553724 51.04598416 -17.48687744 53.11224365 C-18.23587311 53.55168304 -18.23587311 53.55168304 -19 54 C-19.29939549 48.79013471 -19.51556707 43.58538541 -19.65917969 38.36889648 C-19.71908959 36.60010502 -19.80066228 34.83189688 -19.90527344 33.06518555 C-20.79618506 17.61835022 -20.79618506 17.61835022 -16.48632812 12.49072266 C-13.58969551 9.62190584 -10.35063222 7.31723806 -7 5 C-5.88004899 4.08201759 -4.76873544 3.15338033 -3.66699219 2.21362305 C-1 0 -1 0 0 0 Z " fill="#0C0B0B" transform="translate(36,7)"/>
<path d="M0 0 C3 0.75 3 0.75 5.375 2.9375 C8.26138162 7.99772551 7.56793136 14.15587611 7 19.75 C5.9375 23.5 5.9375 23.5 4 25.75 C0.5 26.8125 0.5 26.8125 -3 26.75 C-5.6479735 24.98468433 -5.9769986 23.81900421 -7 20.75 C-8.01059411 7.41347118 -8.01059411 7.41347118 -5.375 2.875 C-3 0.75 -3 0.75 0 0 Z " fill="#0E0E0E" transform="translate(132,15.25)"/>
<path d="M0 0 C8 0 8 0 10.4375 2.3125 C13.42392929 7.44915838 13.53226867 12.19015213 13 18 C10.97058824 23.02941176 10.97058824 23.02941176 9 25 C6.03 25 3.06 25 0 25 C0 16.75 0 8.5 0 0 Z " fill="#111111" transform="translate(152,16)"/>
<path d="M0 0 C8 0 8 0 9.984375 1.22265625 C11.25954322 3.45420064 11.33635831 4.87697607 11.25 7.4375 C11.23453125 8.19933594 11.2190625 8.96117187 11.203125 9.74609375 C11 12 11 12 10.42578125 13.98828125 C9.89038501 16.51790567 10.3133497 18.2533988 10.9375 20.75 C11.13214844 21.54921875 11.32679687 22.3484375 11.52734375 23.171875 C11.68332031 23.77515625 11.83929688 24.3784375 12 25 C10.35 25 8.7 25 7 25 C6.34 22.36 5.68 19.72 5 17 C4.67 19.97 4.34 22.94 4 26 C2.68 26 1.36 26 0 26 C0 17.42 0 8.84 0 0 Z " fill="#212121" transform="translate(56,16)"/>
<path d="M0 0 C1.32 0 2.64 0 4 0 C4 6.93 4 13.86 4 21 C4.99 21 5.98 21 7 21 C7 14.07 7 7.14 7 0 C8.65 0 10.3 0 12 0 C12.11627503 3.58305992 12.1872736 7.16563417 12.25 10.75 C12.30027344 12.27367187 12.30027344 12.27367187 12.3515625 13.828125 C12.45053818 21.35027652 12.45053818 21.35027652 10.14453125 24.67578125 C7.47833657 26.32212004 6.07926435 26.55268847 3 26 C1.3659668 24.80541992 1.3659668 24.80541992 0 23 C-0.34057617 20.5480957 -0.34057617 20.5480957 -0.29296875 17.67578125 C-0.2784668 16.13374023 -0.2784668 16.13374023 -0.26367188 14.56054688 C-0.23853516 13.48869141 -0.21339844 12.41683594 -0.1875 11.3125 C-0.16719727 9.68731445 -0.16719727 9.68731445 -0.14648438 8.02929688 C-0.11110643 5.35236595 -0.06174189 2.67643162 0 0 Z " fill="#1F1F1F" transform="translate(70,16)"/>
<path d="M0 0 C1.32 0 2.64 0 4 0 C4 0.66 4 1.32 4 2 C3.01 2 2.02 2 1 2 C1 4.97 1 7.94 1 11 C1.66 11 2.32 11 3 11 C2.67 9.02 2.34 7.04 2 5 C3.32 4.67 4.64 4.34 6 4 C5.34 3.67 4.68 3.34 4 3 C4.66 3 5.32 3 6 3 C6 2.01 6 1.02 6 0 C8.375 -0.1875 8.375 -0.1875 11 0 C11.66 0.99 12.32 1.98 13 3 C13.66 2.01 14.32 1.02 15 0 C17.475 0.495 17.475 0.495 20 1 C20.02698189 2.62490954 20.04638757 4.24994633 20.0625 5.875 C20.07410156 6.77992187 20.08570313 7.68484375 20.09765625 8.6171875 C20 11 20 11 19 13 C15 13 15 13 13.25 11.5 C12.8375 11.005 12.425 10.51 12 10 C12.33 11.65 12.66 13.3 13 15 C9.04 15 5.08 15 1 15 C-0.91151056 11.17697889 -1.2533646 9.86616705 -1.1875 5.8125 C-1.18105469 4.93207031 -1.17460938 4.05164062 -1.16796875 3.14453125 C-1 1 -1 1 0 0 Z " fill="#1D1D1D" transform="translate(129,49)"/>
<path d="M0 0 C1.32 0 2.64 0 4 0 C4 3.3 4 6.6 4 10 C4.99 10 5.98 10 7 10 C7 6.7 7 3.4 7 0 C8.32 0 9.64 0 11 0 C11 8.25 11 16.5 11 25 C9.68 25 8.36 25 7 25 C7 21.7 7 18.4 7 15 C6.01 15 5.02 15 4 15 C4 18.3 4 21.6 4 25 C2.68 25 1.36 25 0 25 C0 16.75 0 8.5 0 0 Z " fill="#0C0C0C" transform="translate(111,16)"/>
<path d="M0 0 C3.19410622 0.46580716 4.10442866 0.91007155 6 3.4375 C5.01 4.9225 5.01 4.9225 4 6.4375 C2.35 6.1075 0.7 5.7775 -1 5.4375 C-1 6.7575 -1 8.0775 -1 9.4375 C-0.030625 9.72625 0.93875 10.015 1.9375 10.3125 C5 11.4375 5 11.4375 6 13.4375 C6.68660598 20.41799415 6.68660598 20.41799415 3.9375 24.5 C1 26.4375 1 26.4375 -2.8125 26.25 C-3.864375 25.981875 -4.91625 25.71375 -6 25.4375 C-7 22.4375 -7 22.4375 -6 19.4375 C-3.69 20.0975 -1.38 20.7575 1 21.4375 C0.87822312 19.52283633 0.87822312 19.52283633 0 17.4375 C-2.46326712 15.7928326 -2.46326712 15.7928326 -5 14.4375 C-6.59670813 11.24408374 -6.37074333 7.91150235 -6 4.4375 C-4.45429626 1.0026028 -3.74629661 0.54633492 0 0 Z " fill="#0F0F0F" transform="translate(90,15.5625)"/>
<path d="M0 0 C2 2 2 2 2.1953125 5.0390625 C2.13020833 8.359375 2.06510417 11.6796875 2 15 C-2.95 15 -7.9 15 -13 15 C-13.88747193 11.45011229 -14.10545467 8.85819222 -14.0625 5.25 C-14.05347656 4.26515625 -14.04445312 3.2803125 -14.03515625 2.265625 C-14.02355469 1.51796875 -14.01195312 0.7703125 -14 0 C-13.34 0 -12.68 0 -12 0 C-12 3.63 -12 7.26 -12 11 C-11.34 11 -10.68 11 -10 11 C-10 7.37 -10 3.74 -10 0 C-6.25976024 -1.24674659 -3.83399823 -0.76679965 0 0 Z " fill="#B2B2B2" transform="translate(165,49)"/>
<path d="M0 0 C3.96 0 7.92 0 12 0 C12 1.98 12 3.96 12 6 C10.68 6 9.36 6 8 6 C8 12.27 8 18.54 8 25 C6.68 25 5.36 25 4 25 C4 18.73 4 12.46 4 6 C2.68 6 1.36 6 0 6 C0 4.02 0 2.04 0 0 Z " fill="#0C0C0C" transform="translate(97,16)"/>
<path d="M0 0 C1.73775608 1.46440119 3.46484935 2.93782976 5.17578125 4.43359375 C6.55119279 5.61462165 7.98272103 6.73074128 9.4375 7.8125 C11.90733198 11.27026477 11.31639951 14.88680631 11 19 C7.3758636 17.48099978 5.142376 15.31929546 2.4375 12.5 C0.0038015 9.97190847 -2.07009401 7.95327066 -5 6 C-3.63016497 2.83884224 -3.0109362 2.0072908 0 0 Z " fill="#CE222E" transform="translate(6,3)"/>
<path d="M0 0 C1.32 0 2.64 0 4 0 C4 6.93 4 13.86 4 21 C5.65 21 7.3 21 9 21 C9 22.32 9 23.64 9 25 C6.03 25 3.06 25 0 25 C0 16.75 0 8.5 0 0 Z " fill="#070707" transform="translate(141,16)"/>
<path d="M0 0 C3.96 0 7.92 0 12 0 C12 1.65 12 3.3 12 5 C10.35 5 8.7 5 7 5 C7 11.27 7 17.54 7 24 C6.01 24 5.02 24 4 24 C4 17.73 4 11.46 4 5 C2.68 5 1.36 5 0 5 C0 3.35 0 1.7 0 0 Z " fill="#020202" transform="translate(42,17)"/>
<path d="M0 0 C2.64 0 5.28 0 8 0 C8 3.63 8 7.26 8 11 C8.99 11 9.98 11 11 11 C11 11.66 11 12.32 11 13 C10.195625 12.814375 9.39125 12.62875 8.5625 12.4375 C7.716875 12.293125 6.87125 12.14875 6 12 C5.67 12.33 5.34 12.66 5 13 C3.35 13 1.7 13 0 13 C0 8.71 0 4.42 0 0 Z " fill="#F1F1F1" transform="translate(67,49)"/>
<path d="M0 0 C1.32 0 2.64 0 4 0 C4 0.66 4 1.32 4 2 C3.01 2 2.02 2 1 2 C1 4.97 1 7.94 1 11 C1.66 11 2.32 11 3 11 C2.67 9.02 2.34 7.04 2 5 C3.32 4.67 4.64 4.34 6 4 C5.34 3.67 4.68 3.34 4 3 C4.66 3 5.32 3 6 3 C6.33 2.01 6.66 1.02 7 0 C7.1953125 2.05078125 7.390625 4.1015625 7.5859375 6.15234375 C7.72257813 6.76207031 7.85921875 7.37179688 8 8 C8.66 8.33 9.32 8.66 10 9 C11.04808041 10.97522846 12.0520411 12.97481509 13 15 C9.04 15 5.08 15 1 15 C-0.91151056 11.17697889 -1.2533646 9.86616705 -1.1875 5.8125 C-1.18105469 4.93207031 -1.17460938 4.05164062 -1.16796875 3.14453125 C-1 1 -1 1 0 0 Z " fill="#ECECEC" transform="translate(129,49)"/>
<path d="M0 0 C0.66 0 1.32 0 2 0 C2 2.31 2 4.62 2 7 C2.66 7 3.32 7 4 7 C4 5.02 4 3.04 4 1 C4.66 0.67 5.32 0.34 6 0 C8 2 8 2 8.1953125 4.6015625 C8.17210938 5.59929688 8.14890625 6.59703125 8.125 7.625 C8.10695313 8.62789062 8.08890625 9.63078125 8.0703125 10.6640625 C8.03550781 11.82035156 8.03550781 11.82035156 8 13 C8.66 13.33 9.32 13.66 10 14 C9 15 9 15 6.71484375 15.09765625 C5.34005859 15.08025391 5.34005859 15.08025391 3.9375 15.0625 C3.01839844 15.05347656 2.09929688 15.04445313 1.15234375 15.03515625 C0.44207031 15.02355469 -0.26820312 15.01195313 -1 15 C-0.34 14.01 0.32 13.02 1 12 C1.02415584 9.0175423 1.02415584 9.0175423 0.625 5.8125 C0.51414063 4.72582031 0.40328125 3.63914063 0.2890625 2.51953125 C0.19367187 1.68808594 0.09828125 0.85664062 0 0 Z " fill="#E7E7E7" transform="translate(59,49)"/>
<path d="M0 0 C1.65 0 3.3 0 5 0 C6 1 6 1 6.1328125 3.21484375 C6.13023438 4.11332031 6.12765625 5.01179688 6.125 5.9375 C6.12757812 6.83339844 6.13015625 7.72929688 6.1328125 8.65234375 C6 11 6 11 5 13 C3.35 13 1.7 13 0 13 C0 8.71 0 4.42 0 0 Z " fill="#696969" transform="translate(45,49)"/>
<path d="M0 0 C1.67542976 0.28604898 3.34385343 0.61781233 5 1 C5.02698189 2.62490954 5.04638757 4.24994633 5.0625 5.875 C5.07410156 6.77992187 5.08570312 7.68484375 5.09765625 8.6171875 C5 11 5 11 4 13 C2.68 13 1.36 13 0 13 C-1.25069801 10.49860398 -1.13302467 8.72607309 -1.125 5.9375 C-1.12757812 5.03902344 -1.13015625 4.14054687 -1.1328125 3.21484375 C-1 1 -1 1 0 0 Z " fill="#0D0D0D" transform="translate(80,49)"/>
<path d="M0 0 C0.99 0.33 1.98 0.66 3 1 C3 5.62 3 10.24 3 15 C1.68 15 0.36 15 -1 15 C-2.72973114 13.27026886 -2.17208117 10.97483037 -2.1875 8.625 C-2.20167969 7.64789062 -2.21585938 6.67078125 -2.23046875 5.6640625 C-2 3 -2 3 0 0 Z " fill="#E9E9E9" transform="translate(131,21)"/>
<path d="M0 0 C0.99 0 1.98 0 3 0 C3.33 1.32 3.66 2.64 4 4 C4.33 2.68 4.66 1.36 5 0 C5.66 0 6.32 0 7 0 C8.10228696 4.40914783 8.07654536 8.48382401 8 13 C6.35 13 4.7 13 3 13 C2.67 11.02 2.34 9.04 2 7 C1.67 8.98 1.34 10.96 1 13 C0.67 13 0.34 13 0 13 C0 8.71 0 4.42 0 0 Z " fill="#262626" transform="translate(94,49)"/>
<path d="M0 0 C5 1 5 1 7 3 C7.125 6.625 7.125 6.625 7 10 C6.34 10 5.68 10 5 10 C4.67 10.99 4.34 11.98 4 13 C3.34 11.68 2.68 10.36 2 9 C1.34 10.32 0.68 11.64 0 13 C0 8.71 0 4.42 0 0 Z " fill="#535353" transform="translate(136,49)"/>
<path d="M0 0 C0.33 0 0.66 0 1 0 C1.0868329 3.458176 1.14033282 6.91607344 1.1875 10.375 C1.22520508 11.85226563 1.22520508 11.85226563 1.26367188 13.359375 C1.27333984 14.30039062 1.28300781 15.24140625 1.29296875 16.2109375 C1.3086792 17.08024902 1.32438965 17.94956055 1.34057617 18.84521484 C1.22818604 19.55629395 1.1157959 20.26737305 1 21 C0.01 21.66 -0.98 22.32 -2 23 C-3.79321797 16.26853564 -4.2158855 11.6476565 -2 5 C-1.67 5 -1.34 5 -1 5 C-0.67 3.35 -0.34 1.7 0 0 Z " fill="#CECECE" transform="translate(69,17)"/>
<path d="M0 0 C1.98 0.99 1.98 0.99 4 2 C4.02696365 3.79158489 4.04637917 5.58328473 4.0625 7.375 C4.07410156 8.37273438 4.08570313 9.37046875 4.09765625 10.3984375 C4 13 4 13 3 15 C2.01 15 1.02 15 0 15 C0 10.05 0 5.1 0 0 Z " fill="#D8D8D8" transform="translate(156,21)"/>
<path d="M0 0 C0.99 0 1.98 0 3 0 C3.33 1.32 3.66 2.64 4 4 C4.66 2.68 5.32 1.36 6 0 C6 3.96 6 7.92 6 12 C5.34 12 4.68 12 4 12 C3.67 10.68 3.34 9.36 3 8 C2.67 9.65 2.34 11.3 2 13 C1.34 13 0.68 13 0 13 C0 8.71 0 4.42 0 0 Z " fill="#2F2F2F" transform="translate(110,49)"/>
<path d="M0 0 C2.475 0.495 2.475 0.495 5 1 C5 2.98 5 4.96 5 7 C4.01 7 3.02 7 2 7 C2 8.98 2 10.96 2 13 C1.34 13 0.68 13 0 13 C0 8.71 0 4.42 0 0 Z " fill="#3D3D3D" transform="translate(87,49)"/>
<path d="M0 0 C0.33 0 0.66 0 1 0 C1 1.98 1 3.96 1 6 C1.66 6 2.32 6 3 6 C3.33 5.34 3.66 4.68 4 4 C4.33 4.33 4.66 4.66 5 5 C5.969375 4.979375 6.93875 4.95875 7.9375 4.9375 C11 5 11 5 13 7 C12 8 12 8 8.40234375 8.09765625 C6.91403133 8.0909822 5.42573568 8.07902183 3.9375 8.0625 C2.79958008 8.05573242 2.79958008 8.05573242 1.63867188 8.04882812 C-0.24091871 8.0370068 -2.12046899 8.01907078 -4 8 C-3.34 6.68 -2.68 5.36 -2 4 C-2 4.66 -2 5.32 -2 6 C-1.34 6 -0.68 6 0 6 C0 4.02 0 2.04 0 0 Z " fill="#FBFBFB" transform="translate(99,56)"/>
<path d="M0 0 C1.32 0 2.64 0 4 0 C4 0.66 4 1.32 4 2 C3.01 2 2.02 2 1 2 C1 4.97 1 7.94 1 11 C1.66 11 2.32 11 3 11 C2.67 9.02 2.34 7.04 2 5 C2.99 5 3.98 5 5 5 C5.125 10.75 5.125 10.75 4 13 C2.68 13 1.36 13 0 13 C-1.25069801 10.49860398 -1.13302467 8.72607309 -1.125 5.9375 C-1.12757812 5.03902344 -1.13015625 4.14054687 -1.1328125 3.21484375 C-1 1 -1 1 0 0 Z " fill="#2E2E2E" transform="translate(129,49)"/>
<path d="M0 0 C1.32 0 2.64 0 4 0 C4 0.66 4 1.32 4 2 C3.34 2 2.68 2 2 2 C2 2.99 2 3.98 2 5 C2.66 5 3.32 5 4 5 C4 5.66 4 6.32 4 7 C3.34 7 2.68 7 2 7 C2 7.99 2 8.98 2 10 C2.99 10 3.98 10 5 10 C5 10.99 5 11.98 5 13 C3.35 13 1.7 13 0 13 C0 8.71 0 4.42 0 0 Z " fill="#3B3B3B" transform="translate(104,49)"/>
<path d="M0 0 C0.99 0 1.98 0 3 0 C3.66 1.98 4.32 3.96 5 6 C3.375 8.0625 3.375 8.0625 1 10 C-2.25 9.75 -2.25 9.75 -5 9 C-5.33 7.68 -5.66 6.36 -6 5 C-3.03 6.98 -3.03 6.98 0 9 C0 6.03 0 3.06 0 0 Z " fill="#FBE6E7" transform="translate(17,13)"/>
<path d="M0 0 C0.66 0.33 1.32 0.66 2 1 C2 1.66 2 2.32 2 3 C3.32 3 4.64 3 6 3 C6 5.31 6 7.62 6 10 C1.7257442 8.4169423 -0.26531794 5.49431596 -3 2 C-2.01 2 -1.02 2 0 2 C0 1.34 0 0.68 0 0 Z " fill="#D6212E" transform="translate(10,9)"/>
<path d="M0 0 C1.65 0 3.3 0 5 0 C4.01 0.33 3.02 0.66 2 1 C2 2.32 2 3.64 2 5 C2.66 5 3.32 5 4 5 C4 5.66 4 6.32 4 7 C3.34 7 2.68 7 2 7 C2 7.99 2 8.98 2 10 C2.99 10 3.98 10 5 10 C5 10.99 5 11.98 5 13 C3.35 13 1.7 13 0 13 C0 8.71 0 4.42 0 0 Z " fill="#2C2C2C" transform="translate(53,49)"/>
<path d="M0 0 C0.66 0 1.32 0 2 0 C2 2.31 2 4.62 2 7 C2.66 7 3.32 7 4 7 C4 5.02 4 3.04 4 1 C4.66 0.67 5.32 0.34 6 0 C5.48041715 4.37934119 4.94324258 8.68803391 4 13 C3.34 13 2.68 13 2 13 C1.34 8.71 0.68 4.42 0 0 Z " fill="#1F1F1F" transform="translate(59,49)"/>
<path d="M0 0 C1.32 0.33 2.64 0.66 4 1 C3.01 1 2.02 1 1 1 C1 2.32 1 3.64 1 5 C1.99 5 2.98 5 4 5 C4 5.66 4 6.32 4 7 C3.01 7 2.02 7 1 7 C1 7.99 1 8.98 1 10 C2.98 10.495 2.98 10.495 5 11 C5 11.66 5 12.32 5 13 C3.35 13 1.7 13 0 13 C0 8.71 0 4.42 0 0 Z " fill="#252525" transform="translate(67,49)"/>
<path d="M0 0 C0.66 0 1.32 0 2 0 C3.36952673 2.73905345 3.12621361 4.97087332 3 8 C2.67 8.66 2.34 9.32 2 10 C1.01 9.67 0.02 9.34 -1 9 C-1.125 2.25 -1.125 2.25 0 0 Z " fill="#D2D2D2" transform="translate(145,50)"/>
<path d="M0 0 C1.98 0 3.96 0 6 0 C5.01 0.495 5.01 0.495 4 1 C4 4.96 4 8.92 4 13 C3.34 13 2.68 13 2 13 C2 9.37 2 5.74 2 2 C1.34 2 0.68 2 0 2 C0 1.34 0 0.68 0 0 Z " fill="#474747" transform="translate(117,49)"/>
<path d="M0 0 C0.66 0 1.32 0 2 0 C2 3.63 2 7.26 2 11 C2.99 11 3.98 11 5 11 C5 11.66 5 12.32 5 13 C3.35 12.67 1.7 12.34 0 12 C0 8.04 0 4.08 0 0 Z " fill="#3A3A3A" transform="translate(73,49)"/>
<path d="M0 0 C1.98 0 3.96 0 6 0 C6 1.98 6 3.96 6 6 C5.34 6 4.68 6 4 6 C3.87625 5.360625 3.7525 4.72125 3.625 4.0625 C3.315625 3.0415625 3.315625 3.0415625 3 2 C2.34 1.67 1.68 1.34 1 1 C1 2.65 1 4.3 1 6 C1.66 6.33 2.32 6.66 3 7 C2.34 8.65 1.68 10.3 1 12 C0.67 12 0.34 12 0 12 C0 8.04 0 4.08 0 0 Z " fill="#1C1C1C" transform="translate(159,49)"/>
<path d="M0 0 C2.99220268 1.36370299 5.29026529 2.94908083 7.75 5.125 C8.67039062 5.93324219 8.67039062 5.93324219 9.609375 6.7578125 C10.06828125 7.16773438 10.5271875 7.57765625 11 8 C11 6.02 11 4.04 11 2 C11.33 2 11.66 2 12 2 C12 4.97 12 7.94 12 11 C8.36212678 9.18106339 6.52780768 7.77189265 3.75 4.9375 C3.04359375 4.22464844 2.3371875 3.51179687 1.609375 2.77734375 C0 1 0 1 0 0 Z " fill="#B32E3B" transform="translate(5,11)"/>
<path d="M0 0 C1.65 1.65 3.3 3.3 5 5 C-1.625 6 -1.625 6 -5 6 C-3.63016497 2.83884224 -3.0109362 2.0072908 0 0 Z " fill="#C53341" transform="translate(6,3)"/>
<path d="M0 0 C0.66 0.33 1.32 0.66 2 1 C2 3.97 2 6.94 2 10 C1.01 10 0.02 10 -1 10 C-1.02689216 8.52093108 -1.04634621 7.04172517 -1.0625 5.5625 C-1.07410156 4.73878906 -1.08570312 3.91507813 -1.09765625 3.06640625 C-1 1 -1 1 0 0 Z " fill="#F2F2F2" transform="translate(116,16)"/>
<path d="M0 0 C1.65 0 3.3 0 5 0 C4.1875 3.4375 4.1875 3.4375 3 7 C2.01 7.33 1.02 7.66 0 8 C0 5.36 0 2.72 0 0 Z " fill="#020202" transform="translate(56,17)"/>
<path d="M0 0 C0.66 0 1.32 0 2 0 C2 2.97 2 5.94 2 9 C1.01 8.67 0.02 8.34 -1 8 C-1.04241723 5.66705225 -1.04092937 3.33297433 -1 1 C-0.67 0.67 -0.34 0.34 0 0 Z " fill="#DDDDDD" transform="translate(81,50)"/>
<path d="M0 0 C0.99 0 1.98 0 3 0 C3 2.31 3 4.62 3 7 C2.67 7 2.34 7 2 7 C1.67 8.98 1.34 10.96 1 13 C0.67 13 0.34 13 0 13 C0 8.71 0 4.42 0 0 Z " fill="#1F1F1F" transform="translate(94,49)"/>
<path d="M0 0 C0.33 0 0.66 0 1 0 C2.125 7.75 2.125 7.75 1 10 C-0.32 10 -1.64 10 -3 10 C-3.33 9.01 -3.66 8.02 -4 7 C-3.34 6.67 -2.68 6.34 -2 6 C-1.34 6.33 -0.68 6.66 0 7 C0 4.69 0 2.38 0 0 Z " fill="#4F4F4F" transform="translate(83,52)"/>
<path d="M0 0 C-1 3 -1 3 -3.5 4.4375 C-6.15872085 5.74552024 -6.15872085 5.74552024 -6.8125 8.1875 C-6.874375 8.785625 -6.93625 9.38375 -7 10 C-7.33 10 -7.66 10 -8 10 C-8.39344358 6.55736871 -8.11375268 5.18281681 -6.25 2.1875 C-4 0 -4 0 0 0 Z " fill="#FADEE0" transform="translate(8,1)"/>
<path d="M0 0 C1.32 0 2.64 0 4 0 C4.33 1.65 4.66 3.3 5 5 C4.01 5.33 3.02 5.66 2 6 C2 5.34 2 4.68 2 4 C1.34 4 0.68 4 0 4 C0 2.68 0 1.36 0 0 Z " fill="#DDDDDD" transform="translate(55,50)"/>
<path d="M0 0 C3.01327566 1.50663783 3.61056618 4.03166411 5 7 C3.02 7 1.04 7 -1 7 C-0.67 4.69 -0.34 2.38 0 0 Z " fill="#E5E5E5" transform="translate(137,57)"/>
<path d="M0 0 C0.66 0.33 1.32 0.66 2 1 C1.67 2.32 1.34 3.64 1 5 C-0.32 5 -1.64 5 -3 5 C-3 3.68 -3 2.36 -3 1 C-2.01 0.67 -1.02 0.34 0 0 Z " fill="#D6D6D6" transform="translate(71,49)"/>
<path d="M0 0 C1.98 0 3.96 0 6 0 C4.25 3.875 4.25 3.875 2 5 C1.34 4.67 0.68 4.34 0 4 C0 2.68 0 1.36 0 0 Z " fill="#DADADA" transform="translate(89,21)"/>
<path d="M0 0 C0.66 0.33 1.32 0.66 2 1 C1.67 3.64 1.34 6.28 1 9 C0.34 9 -0.32 9 -1 9 C-1.125 2.25 -1.125 2.25 0 0 Z " fill="#494949" transform="translate(98,53)"/>
<path d="M0 0 C0.99 0.33 1.98 0.66 3 1 C3.33 2.65 3.66 4.3 4 6 C3.01 6 2.02 6 1 6 C0 5 0 5 -0.0625 2.4375 C-0.041875 1.633125 -0.02125 0.82875 0 0 Z " fill="#929292" transform="translate(160,50)"/>
<path d="M0 0 C0.99 0 1.98 0 3 0 C3 1.98 3 3.96 3 6 C1.68 6.33 0.36 6.66 -1 7 C-0.34 6.67 0.32 6.34 1 6 C0.67 4.02 0.34 2.04 0 0 Z " fill="#262626" transform="translate(131,54)"/>
<path d="M0 0 C0.99 0.33 1.98 0.66 3 1 C3.33 1.99 3.66 2.98 4 4 C3.01 5.485 3.01 5.485 2 7 C2 6.34 2 5.68 2 5 C1.34 5 0.68 5 0 5 C0 3.35 0 1.7 0 0 Z " fill="#7D7D7D" transform="translate(137,50)"/>
</svg>
