<?xml version="1.0" standalone="no"?>
<!DOCTYPE svg PUBLIC "-//W3C//DTD SVG 20010904//EN"
 "http://www.w3.org/TR/2001/REC-SVG-20010904/DTD/svg10.dtd">
<svg version="1.0" xmlns="http://www.w3.org/2000/svg"
 width="167.000000pt" height="64.000000pt" viewBox="0 0 167.000000 64.000000"
 preserveAspectRatio="xMidYMid meet">
<metadata>
Created by potrace 1.16, written by Peter Selinger 2001-2019
</metadata>
<g transform="translate(0.000000,64.000000) scale(0.100000,-0.100000)"
fill="#000000" stroke="none">
<path d="M263 489 l-93 -81 0 -189 0 -190 35 28 35 28 0 126 0 126 59 49 60
49 0 68 c1 37 0 67 -1 67 -2 -1 -45 -37 -95 -81z"/>
<path d="M417 473 c-4 -3 -7 -17 -7 -30 0 -18 5 -23 25 -23 25 0 25 0 25 -95
0 -88 1 -95 20 -95 19 0 20 7 20 95 0 88 1 95 20 95 16 0 20 7 20 30 0 30 0
30 -58 30 -32 0 -62 -3 -65 -7z"/>
<path d="M560 356 c0 -119 1 -126 20 -126 17 0 20 7 20 46 0 54 15 50 25 -6 6
-34 11 -40 31 -40 13 0 24 1 24 3 0 1 -7 24 -15 50 -10 34 -12 55 -5 67 12 23
13 90 1 109 -5 7 -29 16 -55 18 l-46 6 0 -127z"/>
<path d="M700 367 c0 -98 3 -116 18 -130 20 -18 49 -22 69 -9 21 13 29 55 28
152 -1 88 -2 95 -20 95 -18 0 -20 -8 -22 -98 -1 -54 -4 -101 -6 -104 -18 -17
-27 18 -27 108 0 92 -1 99 -20 99 -19 0 -20 -7 -20 -113z"/>
<path d="M860 460 c-20 -20 -27 -71 -14 -105 4 -8 19 -22 35 -31 31 -15 38
-41 15 -50 -8 -3 -23 -1 -34 5 -17 9 -21 7 -26 -12 -12 -47 58 -64 99 -22 34
33 34 87 0 120 -13 14 -29 25 -35 25 -5 0 -10 9 -10 21 0 17 4 20 29 14 23 -5
29 -2 34 15 10 39 -58 55 -93 20z"/>
<path d="M1110 355 c0 -118 1 -125 20 -125 17 0 20 7 20 50 0 38 4 50 15 50
11 0 15 -12 15 -50 0 -45 2 -50 23 -50 22 0 22 2 22 123 0 119 -1 122 -22 125
-21 3 -23 0 -23 -47 0 -39 -4 -51 -15 -51 -11 0 -15 12 -15 50 0 43 -3 50 -20
50 -19 0 -20 -7 -20 -125z"/>
<path d="M1270 448 c-15 -25 -20 -51 -20 -106 0 -64 3 -76 25 -97 65 -66 125
7 113 135 -7 66 -30 100 -68 100 -23 0 -35 -7 -50 -32z"/>
<path d="M1520 355 l0 -126 47 3 c42 3 50 7 63 33 8 17 15 57 15 92 0 82 -24
117 -83 121 l-42 3 0 -126z"/>
</g>
</svg>
