<?xml version="1.0" encoding="UTF-8"?>
<!DOCTYPE svg PUBLIC "-//W3C//DTD SVG 1.1//EN" "http://www.w3.org/Graphics/SVG/1.1/DTD/svg11.dtd">
<svg xmlns="http://www.w3.org/2000/svg" version="1.1" width="167px" height="64px" style="shape-rendering:geometricPrecision; text-rendering:geometricPrecision; image-rendering:optimizeQuality; fill-rule:evenodd; clip-rule:evenodd" xmlns:xlink="http://www.w3.org/1999/xlink">
<g><path style="opacity:0.971" fill="#da2730" d="M 17.5,20.5 C 17.1667,21.1667 16.8333,21.8333 16.5,22.5C 10.8142,17.8101 5.14749,13.1435 -0.5,8.5C -0.5,7.83333 -0.5,7.16667 -0.5,6.5C 2.05616,5.45659 4.22283,3.78992 6,1.5C 9.66667,5.16667 13.3333,8.83333 17,12.5C 17.4974,15.146 17.6641,17.8127 17.5,20.5 Z"/></g>
<g><path style="opacity:0.979" fill="#080808" d="M 34.5,6.5 C 35.4861,10.97 35.8195,15.6367 35.5,20.5C 31.6046,23.7076 27.7713,27.041 24,30.5C 23.6667,38.8333 23.3333,47.1667 23,55.5C 21.2962,57.3734 19.4628,59.0401 17.5,60.5C 16.8333,60.1667 16.1667,59.8333 15.5,59.5C 15.1874,47.0867 15.5208,34.7533 16.5,22.5C 16.8333,21.8333 17.1667,21.1667 17.5,20.5C 23.1667,15.8333 28.8333,11.1667 34.5,6.5 Z"/></g>
<g><path style="opacity:0.342" fill="#838383" d="M 34.5,6.5 C 34.56,5.95691 34.8933,5.62358 35.5,5.5C 36.8137,10.6523 36.8137,15.6523 35.5,20.5C 35.8195,15.6367 35.4861,10.97 34.5,6.5 Z"/></g>
<g><path style="opacity:0.963" fill="#131313" d="M 87.5,14.5 C 93.8302,14.0951 96.1635,16.7617 94.5,22.5C 92.4012,21.7691 90.4012,21.7691 88.5,22.5C 96.2324,26.1981 98.0658,31.8648 94,39.5C 90.81,43.005 87.31,43.3383 83.5,40.5C 82.2404,38.6471 82.2404,36.8138 83.5,35C 92.3613,35.7703 92.6946,33.9369 84.5,29.5C 81.5357,23.722 82.5357,18.722 87.5,14.5 Z"/></g>
<g><path style="opacity:0.942" fill="#0e0e0e" d="M 139.5,26.5 C 139.5,27.5 139.5,28.5 139.5,29.5C 139.668,35.4837 137.002,39.817 131.5,42.5C 125.428,40.2 122.761,35.7 123.5,29C 123.296,24.1363 124.63,19.803 127.5,16C 130.46,13.9478 133.293,14.1145 136,16.5C 137.692,19.7761 138.859,23.1095 139.5,26.5 Z M 130.5,21.5 C 131.75,21.5774 132.583,22.244 133,23.5C 133.167,25.1667 133.333,26.8333 133.5,28.5C 133.679,31.1312 133.013,33.4645 131.5,35.5C 130.914,35.2907 130.414,34.9574 130,34.5C 129.232,30.0804 129.398,25.7471 130.5,21.5 Z"/></g>
<g><path style="opacity:0.985" fill="#0e0e0e" d="M 40.5,15.5 C 44.8333,15.5 49.1667,15.5 53.5,15.5C 53.5,17.8333 53.5,20.1667 53.5,22.5C 52.1667,22.5 50.8333,22.5 49.5,22.5C 49.5,28.8333 49.5,35.1667 49.5,41.5C 47.8333,41.5 46.1667,41.5 44.5,41.5C 44.5,35.1667 44.5,28.8333 44.5,22.5C 43.1667,22.5 41.8333,22.5 40.5,22.5C 40.5,20.1667 40.5,17.8333 40.5,15.5 Z"/></g>
<g><path style="opacity:0.973" fill="#101010" d="M 54.5,15.5 C 64.2602,13.101 68.4269,16.7676 67,26.5C 66.5348,27.9308 65.7014,29.0975 64.5,30C 65.7553,33.5139 67.0886,37.0139 68.5,40.5C 66.5,41.8333 64.5,41.8333 62.5,40.5C 60.0877,28.6128 59.0877,28.9462 59.5,41.5C 57.8333,41.5 56.1667,41.5 54.5,41.5C 54.5,32.8333 54.5,24.1667 54.5,15.5 Z M 59.5,21.5 C 60.5862,21.62 61.2528,22.2867 61.5,23.5C 61.1667,24.1667 60.8333,24.8333 60.5,25.5C 59.5713,24.3112 59.238,22.9778 59.5,21.5 Z"/></g>
<g><path style="opacity:0.927" fill="#090909" d="M 76.5,16.5 C 77.8333,16.5 79.1667,16.5 80.5,16.5C 80.176,23.3543 80.5093,30.021 81.5,36.5C 78.9329,42.7113 75.0996,43.7113 70,39.5C 68.5648,31.6112 68.0648,23.6112 68.5,15.5C 70.1667,15.5 71.8333,15.5 73.5,15.5C 73.3338,21.8421 73.5005,28.1754 74,34.5C 74.414,34.9574 74.914,35.2907 75.5,35.5C 76.4963,29.2015 76.8297,22.8682 76.5,16.5 Z"/></g>
<g><path style="opacity:0.985" fill="#0d0d0d" d="M 96.5,15.5 C 100.5,15.5 104.5,15.5 108.5,15.5C 108.5,17.8333 108.5,20.1667 108.5,22.5C 107.127,22.3433 105.793,22.51 104.5,23C 105.476,29.0758 105.81,35.2424 105.5,41.5C 103.5,41.5 101.5,41.5 99.5,41.5C 99.5,35.1667 99.5,28.8333 99.5,22.5C 98.5,22.5 97.5,22.5 96.5,22.5C 96.5,20.1667 96.5,17.8333 96.5,15.5 Z"/></g>
<g><path style="opacity:0.897" fill="#181818" d="M 109.5,15.5 C 111.5,15.5 113.5,15.5 115.5,15.5C 115.777,18.4475 115.444,21.2809 114.5,24C 115.448,24.4828 116.448,24.6495 117.5,24.5C 117.5,21.5 117.5,18.5 117.5,15.5C 119.167,15.5 120.833,15.5 122.5,15.5C 122.5,24.1667 122.5,32.8333 122.5,41.5C 120.833,41.5 119.167,41.5 117.5,41.5C 116.833,26.8333 116.167,26.8333 115.5,41.5C 113.5,41.5 111.5,41.5 109.5,41.5C 109.5,32.8333 109.5,24.1667 109.5,15.5 Z"/></g>
<g><path style="opacity:0.975" fill="#131313" d="M 139.5,29.5 C 140.833,28.5 140.833,27.5 139.5,26.5C 139.5,22.8333 139.5,19.1667 139.5,15.5C 141.5,15.5 143.5,15.5 145.5,15.5C 145.5,22.1667 145.5,28.8333 145.5,35.5C 147.167,35.5 148.833,35.5 150.5,35.5C 150.643,37.2624 150.309,38.9291 149.5,40.5C 146.232,41.487 142.898,41.8204 139.5,41.5C 139.5,37.5 139.5,33.5 139.5,29.5 Z"/></g>
<g><path style="opacity:0.962" fill="#0d0d0d" d="M 151.5,15.5 C 161.19,14.0282 165.524,18.1949 164.5,28C 165.831,38.2497 161.498,42.7497 151.5,41.5C 151.5,32.8333 151.5,24.1667 151.5,15.5 Z M 156.5,21.5 C 157.117,21.6107 157.617,21.944 158,22.5C 158.167,24.5 158.333,26.5 158.5,28.5C 158.603,31.0373 158.103,33.3706 157,35.5C 156.501,30.8452 156.334,26.1785 156.5,21.5 Z"/></g>
<g><path style="opacity:0.675" fill="#434343" d="M 76.5,16.5 C 77.9187,15.5489 79.5853,15.2155 81.5,15.5C 81.5,22.5 81.5,29.5 81.5,36.5C 80.5093,30.021 80.176,23.3543 80.5,16.5C 79.1667,16.5 77.8333,16.5 76.5,16.5 Z"/></g>
<g><path style="opacity:0.616" fill="#000000" d="M 44.5,47.5 C 49.1107,47.4438 51.4441,49.7771 51.5,54.5C 51.5757,59.3996 49.2424,61.7329 44.5,61.5C 44.5,56.8333 44.5,52.1667 44.5,47.5 Z M 46.5,51.5 C 46.56,50.9569 46.8933,50.6236 47.5,50.5C 48.8333,53.1667 48.8333,55.8333 47.5,58.5C 47.6692,56.236 47.3358,53.9026 46.5,51.5 Z"/></g>
<g><path style="opacity:0.604" fill="#000000" d="M 52.5,47.5 C 55.1667,47.5 57.8333,47.5 60.5,47.5C 61.3163,55.0366 62.3163,55.2033 63.5,48C 66.146,47.5026 68.8127,47.3359 71.5,47.5C 71.5,48.5 71.5,49.5 71.5,50.5C 67.8767,50.6492 67.5434,51.8158 70.5,54C 69.2927,55.3002 68.6261,56.8002 68.5,58.5C 69.5,58.5 70.5,58.5 71.5,58.5C 71.5,59.5 71.5,60.5 71.5,61.5C 69.5,61.5 67.5,61.5 65.5,61.5C 65.4819,46.9102 64.8153,46.9102 63.5,61.5C 61.8762,61.6399 60.7096,60.9733 60,59.5C 59.1184,56.2105 58.4517,52.8772 58,49.5C 56.7949,50.0712 55.6283,50.7379 54.5,51.5C 55.325,52.3857 56.325,52.719 57.5,52.5C 57.5,53.5 57.5,54.5 57.5,55.5C 56.5,55.5 55.5,55.5 54.5,55.5C 54.5,56.5 54.5,57.5 54.5,58.5C 55.5,58.5 56.5,58.5 57.5,58.5C 57.5,59.5 57.5,60.5 57.5,61.5C 55.8333,61.5 54.1667,61.5 52.5,61.5C 52.5,56.8333 52.5,52.1667 52.5,47.5 Z"/></g>
<g><path style="opacity:0.706" fill="#000000" d="M 77.5,58.5 C 77.5,59.5 77.5,60.5 77.5,61.5C 75.8333,61.5 74.1667,61.5 72.5,61.5C 72.1734,56.7863 72.5067,52.1196 73.5,47.5C 74.4892,51.1073 74.8226,54.774 74.5,58.5C 75.5,58.5 76.5,58.5 77.5,58.5 Z"/></g>
<g><path style="opacity:0.603" fill="#000000" d="M 77.5,58.5 C 77.1842,55.0217 77.6842,51.6883 79,48.5C 80.4579,47.2532 81.9579,47.2532 83.5,48.5C 85.9767,52.3771 86.1433,56.3771 84,60.5C 81.0944,62.0671 78.9277,61.4005 77.5,58.5 Z M 80.5,50.5 C 81.7479,51.3339 82.4146,52.6672 82.5,54.5C 82.1667,55.8333 81.8333,57.1667 81.5,58.5C 80.52,55.9135 80.1866,53.2469 80.5,50.5 Z"/></g>
<g><path style="opacity:0.702" fill="#000000" d="M 92.5,54.5 C 89.7113,55.9185 88.0447,58.2519 87.5,61.5C 86.5067,56.8804 86.1734,52.2137 86.5,47.5C 91.3234,47.3272 93.3234,49.6606 92.5,54.5 Z"/></g>
<g><path style="opacity:0.636" fill="#0a0a0a" d="M 92.5,54.5 C 93.4682,52.3926 93.8016,50.0593 93.5,47.5C 94.5,47.5 95.5,47.5 96.5,47.5C 96.4511,52.5388 97.1177,52.7055 98.5,48C 99.448,47.5172 100.448,47.3505 101.5,47.5C 101.827,52.2137 101.493,56.8804 100.5,61.5C 99.7022,59.9223 99.2022,58.2556 99,56.5C 98.7978,58.2556 98.2978,59.9223 97.5,61.5C 96.8076,60.9747 96.3076,60.3081 96,59.5C 95.2904,60.9733 94.1238,61.6399 92.5,61.5C 92.8499,58.9592 92.8499,56.6258 92.5,54.5 Z"/></g>
<g><path style="opacity:0.544" fill="#000000" d="M 102.5,47.5 C 104.5,47.5 106.5,47.5 108.5,47.5C 108.5,48.5 108.5,49.5 108.5,50.5C 104.877,50.6492 104.543,51.8158 107.5,54C 106.293,55.3002 105.626,56.8002 105.5,58.5C 106.5,58.5 107.5,58.5 108.5,58.5C 108.5,59.5 108.5,60.5 108.5,61.5C 106.5,61.5 104.5,61.5 102.5,61.5C 102.5,56.8333 102.5,52.1667 102.5,47.5 Z"/></g>
<g><path style="opacity:0.672" fill="#080808" d="M 109.5,47.5 C 110.5,47.5 111.5,47.5 112.5,47.5C 112.596,51.3107 113.262,51.3107 114.5,47.5C 115.833,52.1667 115.833,56.8333 114.5,61.5C 113.262,57.6893 112.596,57.6893 112.5,61.5C 111.5,61.5 110.5,61.5 109.5,61.5C 109.5,56.8333 109.5,52.1667 109.5,47.5 Z"/></g>
<g><path style="opacity:0.509" fill="#000000" d="M 116.5,47.5 C 118.833,47.5 121.167,47.5 123.5,47.5C 123.5,48.5 123.5,49.5 123.5,50.5C 122.448,50.3505 121.448,50.5172 120.5,51C 121.456,54.3936 121.789,57.8936 121.5,61.5C 120.5,61.5 119.5,61.5 118.5,61.5C 118.768,56.6529 118.102,51.9862 116.5,47.5 Z"/></g>
<g><path style="opacity:0.607" fill="#000000" d="M 129.5,47.5 C 131.346,47.2222 132.68,47.8888 133.5,49.5C 132.311,50.4287 130.978,50.762 129.5,50.5C 129.5,51.5 129.5,52.5 129.5,53.5C 130.833,53.5 132.167,53.5 133.5,53.5C 133.5,56.1667 133.5,58.8333 133.5,61.5C 130.453,62.1446 128.287,61.1446 127,58.5C 125.813,54.2169 126.647,50.5503 129.5,47.5 Z M 129.5,55.5 C 131.332,56.1405 131.665,57.1405 130.5,58.5C 129.614,57.675 129.281,56.675 129.5,55.5 Z"/></g>
<g><path style="opacity:0.585" fill="#030303" d="M 134.5,47.5 C 136.467,47.2606 138.301,47.5939 140,48.5C 140.728,51.2305 140.562,53.8971 139.5,56.5C 140.167,57.8333 140.833,59.1667 141.5,60.5C 140.675,61.3857 139.675,61.719 138.5,61.5C 138.167,57.5 137.833,57.5 137.5,61.5C 136.5,61.5 135.5,61.5 134.5,61.5C 134.5,56.8333 134.5,52.1667 134.5,47.5 Z"/></g>
<g><path style="opacity:0.589" fill="#000000" d="M 143.5,47.5 C 147.549,47.8705 149.549,50.2038 149.5,54.5C 149.436,57.636 148.102,59.9694 145.5,61.5C 143.575,61.4096 142.408,60.4096 142,58.5C 141.112,54.5979 141.612,50.9312 143.5,47.5 Z M 144.5,50.5 C 145.748,51.3339 146.415,52.6672 146.5,54.5C 146.167,55.8333 145.833,57.1667 145.5,58.5C 144.52,55.9135 144.187,53.2469 144.5,50.5 Z"/></g>
<g><path style="opacity:0.694" fill="#000000" d="M 149.5,47.5 C 150.5,47.5 151.5,47.5 152.5,47.5C 152.85,62.1077 153.85,62.1077 155.5,47.5C 156.66,51.4589 156.827,55.4589 156,59.5C 154.599,61.1922 152.766,61.8588 150.5,61.5C 150.647,56.7858 150.314,52.1191 149.5,47.5 Z"/></g>
<g><path style="opacity:0.587" fill="#030303" d="M 157.5,47.5 C 163.723,46.9059 165.723,49.5726 163.5,55.5C 161.077,56.7118 160.077,58.7118 160.5,61.5C 159.5,61.5 158.5,61.5 157.5,61.5C 157.5,56.8333 157.5,52.1667 157.5,47.5 Z"/></g>
<g><path style="opacity:0.071" fill="#a0a0a0" d="M 15.5,59.5 C 16.1667,59.8333 16.8333,60.1667 17.5,60.5C 16.3774,61.7574 15.7107,61.4241 15.5,59.5 Z"/></g>
</svg>
